<svg width="750" height="750" viewBox="0 0 750 750" fill="none" xmlns="http://www.w3.org/2000/svg">
<rect width="750" height="750" rx="375" fill="black"/>
<path d="M460.417 372.917L377.083 289.583L500 166.667H583.333V250L460.417 372.917Z" fill="#FAFAFA"/>
<path d="M255.208 353.906C275.347 356.163 293.924 352.083 310.938 341.667L270.313 301.042C261.285 292.014 250.26 287.413 237.24 287.24C224.219 287.066 213.194 291.667 204.167 301.042L190.104 315.625L203.125 328.646C217.708 343.229 235.069 351.649 255.208 353.906Z" fill="#F43F5E"/>
<path d="M300 271.354L340.625 311.979C351.042 294.965 355.295 276.389 353.385 256.25C351.476 236.111 343.056 218.576 328.125 203.646L270.833 146.354L145.833 270.833L160.938 285.938L175 271.875C192.014 254.167 212.674 245.312 236.979 245.312C261.285 245.312 282.292 253.993 300 271.354Z" fill="#F43F5E"/>
<path d="M553.646 583.333L582.813 554.167L540.104 511.458C555.729 501.389 569.01 489.41 579.948 475.521C590.885 461.632 598.264 445.833 602.083 428.125C606.25 407.292 604.688 386.979 597.396 367.188C590.104 347.396 579.688 329.167 566.146 312.5C556.771 317.361 547.743 323.003 539.063 329.427C530.382 335.851 522.656 342.969 515.885 350.781C509.115 358.594 503.212 367.014 498.177 376.042C493.142 385.069 489.583 394.792 487.5 405.208C485.764 414.931 485.243 424.653 485.938 434.375C486.632 444.097 488.368 453.472 491.146 462.5L340.625 311.979C338.889 314.757 336.979 317.535 334.896 320.312C332.813 323.09 330.556 325.694 328.125 328.125C325.347 330.903 322.569 333.42 319.792 335.677C317.014 337.934 314.063 339.931 310.938 341.667L553.646 583.333Z" fill="#10B981"/>
<path d="M198.958 577.083L172.917 551.042C168.75 546.875 166.667 542.014 166.667 536.458C166.667 530.903 168.75 526.042 172.917 521.875L233.333 460.938L187.5 415.104L202.083 400.521C210.069 392.535 219.965 388.542 231.771 388.542C243.576 388.542 253.472 392.535 261.458 400.521L263.542 403.125L288.542 378.125L371.875 461.458L346.875 486.458L349.479 488.542C357.465 496.528 361.458 506.424 361.458 518.229C361.458 530.035 357.465 539.931 349.479 547.917L334.896 562.5L289.063 516.667L228.125 577.083C223.958 581.25 219.097 583.333 213.542 583.333C207.986 583.333 203.125 581.25 198.958 577.083Z" fill="#737373"/>
</svg>
